# Blender v2.82 (sub 7) OBJ File: ''
# www.blender.org
mtllib kippah.mtl
o shrek.001
v -0.181391 0.021722 -0.198886
v -0.000121 0.021925 -0.261385
v 0.181232 0.022165 -0.199111
v -0.000166 0.126368 -0.148181
v -0.128333 0.128669 -0.070541
v -0.284362 0.029613 -0.031002
v 0.284422 0.030469 -0.031425
v 0.128106 0.129039 -0.070723
v -0.000116 0.147440 -0.036790
v -0.148350 0.123291 0.093280
v -0.233795 0.028081 0.203815
v 0.000276 0.026525 0.307476
v 0.000033 0.133282 0.146891
v 0.148375 0.123668 0.093086
v 0.234190 0.028689 0.203504
v -0.177435 0.014130 -0.193717
v -0.000107 0.014576 -0.254604
v 0.177304 0.014565 -0.193933
v -0.000151 0.117612 -0.143350
v -0.124795 0.119623 -0.068165
v -0.278395 0.021669 -0.029877
v 0.278479 0.022507 -0.030290
v 0.124597 0.119983 -0.068341
v -0.000102 0.137453 -0.036267
v -0.144685 0.114241 0.091122
v -0.229570 0.019860 0.199999
v 0.000283 0.018157 0.302000
v 0.000042 0.123991 0.143192
v 0.144731 0.114608 0.090932
v 0.229983 0.020457 0.199692
vt 0.502703 0.180619
vt 0.377488 0.222716
vt 0.394431 0.037840
vt 0.502703 0.359805
vt 0.351186 0.338787
vt 0.379399 0.500673
vt 0.286393 0.146133
vt 0.211087 0.000148
vt 0.292247 0.251384
vt 0.233036 0.396452
vt 0.159101 0.521608
vt 0.000148 0.349628
vt 0.158514 0.296359
vt 0.157393 0.171570
vt 0.022856 0.116559
vt 0.995398 0.334064
vt 0.889899 0.474087
vt 0.872173 0.292851
vt 0.995398 0.158753
vt 0.846720 0.180225
vt 0.874861 0.020921
vt 0.784067 0.367478
vt 0.710712 0.511591
vt 0.790287 0.265454
vt 0.731985 0.124046
vt 0.659101 0.000148
vt 0.503000 0.169325
vt 0.659689 0.221759
vt 0.658612 0.343311
vt 0.525844 0.398369
vt 0.846072 0.544562
vt 0.946194 0.678916
vt 0.841236 0.552745
vt 0.954775 0.846251
vt 0.954775 0.675824
vt 0.677364 0.520933
vt 0.675415 0.511887
vt 0.839995 0.972096
vt 0.945831 0.843037
vt 0.516319 0.629045
vt 0.508384 0.624864
vt 0.503000 0.838660
vt 0.511753 0.835506
vt 0.844265 0.980306
vt 0.646962 0.991570
vt 0.643518 0.999852
vn 0.2259 0.7160 -0.6605
vn -0.2284 0.7155 -0.6602
vn -0.3074 0.7897 -0.5309
vn -0.5625 0.7345 -0.3795
vn 0.5598 0.7359 -0.3809
vn 0.3046 0.7902 -0.5317
vn 0.0914 0.9785 -0.1851
vn -0.0945 0.9782 -0.1850
vn -0.1485 0.9888 0.0143
vn -0.5425 0.8391 -0.0387
vn -0.6473 0.7484 0.1443
vn -0.2284 0.8180 0.5280
vn -0.2482 0.8065 0.5366
vn -0.0945 0.9926 0.0766
vn 0.0921 0.9928 0.0765
vn 0.1458 0.9892 0.0144
vn 0.5400 0.8407 -0.0392
vn 0.6454 0.7502 0.1437
vn 0.2270 0.8185 0.5277
vn 0.2468 0.8072 0.5362
vn -0.2264 -0.7147 0.6618
vn 0.2289 -0.7142 0.6615
vn 0.3086 -0.7880 0.5327
vn 0.5628 -0.7338 0.3806
vn -0.5601 -0.7351 0.3820
vn -0.3058 -0.7885 0.5335
vn -0.0905 -0.9792 0.1815
vn 0.0936 -0.9790 0.1813
vn 0.1454 -0.9893 -0.0153
vn 0.5443 -0.8380 0.0396
vn 0.6478 -0.7482 -0.1435
vn 0.2289 -0.8168 -0.5296
vn 0.2477 -0.8060 -0.5375
vn 0.0937 -0.9928 -0.0746
vn -0.0913 -0.9930 -0.0744
vn -0.1426 -0.9897 -0.0154
vn -0.5418 -0.8396 0.0401
vn -0.6459 -0.7499 -0.1429
vn -0.2275 -0.8174 -0.5292
vn -0.2463 -0.8067 -0.5372
vn -0.2506 -0.6307 -0.7345
vn 0.2456 -0.6571 -0.7127
vn -0.7031 -0.5853 -0.4038
vn 0.6813 -0.6187 -0.3912
vn -0.8394 -0.5137 0.1774
vn -0.3514 -0.5129 0.7833
vn 0.8016 -0.5750 0.1639
vn 0.3475 -0.5343 0.7706
vn -0.2449 -0.6577 -0.7124
vn 0.2512 -0.6303 -0.7346
vn -0.6801 -0.6204 -0.3906
vn 0.7043 -0.5834 -0.4045
vn -0.7997 -0.5772 0.1653
vn -0.3450 -0.5352 0.7711
vn 0.8412 -0.5113 0.1760
vn 0.3538 -0.5120 0.7828
usemtl Mat
s off
f 2/1/1 4/2/1 3/3/1
f 2/1/2 1/4/2 4/2/2
f 1/4/3 5/5/3 4/2/3
f 5/5/4 1/4/4 6/6/4
f 8/7/5 7/8/5 3/3/5
f 3/3/6 4/2/6 8/7/6
f 9/9/7 8/7/7 4/2/7
f 9/9/8 4/2/8 5/5/8
f 9/9/9 5/5/9 10/10/9
f 6/6/10 10/10/10 5/5/10
f 10/10/11 6/6/11 11/11/11
f 11/11/12 12/12/12 10/10/12
f 12/12/13 13/13/13 10/10/13
f 13/13/14 9/9/14 10/10/14
f 13/13/15 14/14/15 9/9/15
f 9/9/16 14/14/16 8/7/16
f 7/8/17 8/7/17 14/14/17
f 14/14/18 15/15/18 7/8/18
f 15/15/19 14/14/19 12/12/19
f 12/12/20 14/14/20 13/13/20
f 17/16/21 18/17/21 19/18/21
f 17/16/22 19/18/22 16/19/22
f 16/19/23 19/18/23 20/20/23
f 20/20/24 21/21/24 16/19/24
f 23/22/25 18/17/25 22/23/25
f 18/17/26 23/22/26 19/18/26
f 24/24/27 19/18/27 23/22/27
f 24/24/28 20/20/28 19/18/28
f 24/24/29 25/25/29 20/20/29
f 21/21/30 20/20/30 25/25/30
f 25/25/31 26/26/31 21/21/31
f 26/26/32 25/25/32 27/27/32
f 27/27/33 25/25/33 28/28/33
f 28/28/34 25/25/34 24/24/34
f 28/28/35 24/24/35 29/29/35
f 24/24/36 23/22/36 29/29/36
f 22/23/37 29/29/37 23/22/37
f 29/29/38 22/23/38 30/30/38
f 30/30/39 27/27/39 29/29/39
f 27/27/40 28/28/40 29/29/40
f 1/31/41 17/32/41 16/33/41
f 3/34/42 17/32/42 2/35/42
f 1/31/43 21/36/43 6/37/43
f 3/34/44 22/38/44 18/39/44
f 6/37/45 26/40/45 11/41/45
f 12/42/46 26/40/46 27/43/46
f 7/44/47 30/45/47 22/38/47
f 12/42/48 30/45/48 15/46/48
f 1/31/49 2/35/49 17/32/49
f 3/34/50 18/39/50 17/32/50
f 1/31/51 16/33/51 21/36/51
f 3/34/52 7/44/52 22/38/52
f 6/37/53 21/36/53 26/40/53
f 12/42/54 11/41/54 26/40/54
f 7/44/55 15/46/55 30/45/55
f 12/42/56 27/43/56 30/45/56
